{
    "asset" : {
        "generator" : "Khronos glTF Blender I/O v1.7.33",
        "version" : "2.0"
    },
    "extensionsUsed" : [
        "KHR_materials_unlit"
    ],
    "scene" : 0,
    "scenes" : [
        {
            "name" : "Scene",
            "nodes" : [
                2
            ]
        }
    ],
    "nodes" : [
        {
            "mesh" : 0,
            "name" : "c0770568-26f9-4563-b161-abec1735cac3_0"
        },
        {
            "children" : [
                0
            ],
            "name" : "c0770568-26f9-4563-b161-abec1735cac3"
        },
        {
            "children" : [
                1
            ],
            "name" : "RootLoadedObject",
            "translation" : [
                0,
                0.39844563603401184,
                0
            ]
        }
    ],
    "materials" : [
        {
            "extensions" : {
                "KHR_materials_unlit" : {}
            },
            "name" : "c0770568-26f9-4563-b161-abec1735cac3_0",
            "pbrMetallicRoughness" : {
                "baseColorTexture" : {
                    "index" : 0
                },
                "metallicFactor" : 0,
                "roughnessFactor" : 0.9
            }
        }
    ],
    "meshes" : [
        {
            "name" : "c0770568-26f9-4563-b161-abec1735cac3_0",
            "primitives" : [
                {
                    "attributes" : {
                        "POSITION" : 0,
                        "NORMAL" : 1,
                        "TEXCOORD_0" : 2
                    },
                    "indices" : 3,
                    "material" : 0
                }
            ]
        }
    ],
    "textures" : [
        {
            "sampler" : 0,
            "source" : 0
        }
    ],
    "images" : [
        {
            "bufferView" : 4,
            "mimeType" : "image/jpeg",
            "name" : "_diffuseTexture_c0770568-26f9-4563-b161-abec1735cac3_0"
        }
    ],
    "accessors" : [
        {
            "bufferView" : 0,
            "componentType" : 5126,
            "count" : 23933,
            "max" : [
                0.19170986115932465,
                0.39844563603401184,
                0.03813934698700905
            ],
            "min" : [
                -0.2670661509037018,
                -0.35684728622436523,
                -0.3350772559642792
            ],
            "type" : "VEC3"
        },
        {
            "bufferView" : 1,
            "componentType" : 5126,
            "count" : 23933,
            "type" : "VEC3"
        },
        {
            "bufferView" : 2,
            "componentType" : 5126,
            "count" : 23933,
            "type" : "VEC2"
        },
        {
            "bufferView" : 3,
            "componentType" : 5123,
            "count" : 127365,
            "type" : "SCALAR"
        }
    ],
    "bufferViews" : [
        {
            "buffer" : 0,
            "byteLength" : 287196,
            "byteOffset" : 0
        },
        {
            "buffer" : 0,
            "byteLength" : 287196,
            "byteOffset" : 287196
        },
        {
            "buffer" : 0,
            "byteLength" : 191464,
            "byteOffset" : 574392
        },
        {
            "buffer" : 0,
            "byteLength" : 254730,
            "byteOffset" : 765856
        },
        {
            "buffer" : 0,
            "byteLength" : 370923,
            "byteOffset" : 1020588
        }
    ],
    "samplers" : [
        {
            "magFilter" : 9729,
            "minFilter" : 9987
        }
    ],
    "buffers" : [
        {
            "byteLength" : 1391512,
            "uri" : "data:application/octet-stream;base64,"
        }
    ]
}
